Simulation
nRows=37
nColumns=15
endheader
time  TH_x TH_y TH_z SC_y  SC_z  SC_x  AC_y  AC_z  AC_x  GH_y  GH_z  GH_yy  EL_x  PS_y
1.55  0.000000  0.000000  0.000000  -32.99998811307172  7.038852245617148  27.251028957919686  53.84901168331024  6.5031193181548295  -8.769673626049611  22.520468624114848  55.04537801993606  -20.712956866160486  17.96786682404444  0.000000
1.581  0.000000  0.000000  0.000000  -33.38903839978188  7.363865664174163  28.233539900402093  53.8648849769456  6.327287727209888  -8.677332718405786  22.3516568677767  55.44084307739337  -20.741420526584665  17.935004994879417  0.000000
1.612  0.000000  0.000000  0.000000  -33.7518632515403  7.648268465813207  29.061476021223974  53.91840928810906  6.149993229253483  -8.543838992528665  22.144770721664727  55.826067802727955  -20.7171897897119  17.907928549694667  0.000000
1.643  0.000000  0.000000  0.000000  -34.081018169821164  7.875209445373062  29.730658810871198  54.00003477651995  5.997821596046819  -8.393582885399576  21.92315385104397  56.178839084244146  -20.67318423740282  17.901050297030068  0.000000
1.674  0.000000  0.000000  0.000000  -34.38098924214575  8.042714971734185  30.257322716551155  54.09403571431022  5.889159702225935  -8.246654033823624  21.726956387885426  56.46234437132529  -20.636361676709388  17.917969158701602  0.000000
1.705  0.000000  0.000000  0.000000  -34.66142427732428  8.161599247467736  30.666652070128176  54.18583003090991  5.822837853374209  -8.114425006913397  21.595188687962903  56.64357418405297  -20.615385907197236  17.950647687343054  0.000000
1.736  0.000000  0.000000  0.000000  -34.92275134563244  8.24236839047934  30.978999015218093  54.26566564872122  5.784729598371718  -8.009443943757597  21.55300717825658  56.705652313700675  -20.60983918711105  17.987995691494163  0.000000
1.767  0.000000  0.000000  0.000000  -35.14668873753438  8.288238748493534  31.200456622682637  54.32442623091325  5.755888353640309  -7.949908105685258  21.606338464901473  56.65239160001561  -20.61679634710495  18.02173968403329  0.000000
1.798  0.000000  0.000000  0.000000  -35.30140073508685  8.298782941174455  31.32550641264255  54.35218854851351  5.715860178642593  -7.959025146800439  21.746393317784264  56.501954368838376  -20.63688633244807  18.04708019419935  0.000000
1.829  0.000000  0.000000  0.000000  -35.35704516711082  8.27034245173407  31.34826499410842  54.3407757807749  5.646570848178381  -8.05808412660401  21.95994610806221  56.27349439090328  -20.67648461212444  18.062852370896103  0.000000
1.8599999999999999  0.000000  0.000000  0.000000  -35.29837697411214  8.195629339382874  31.269558829413064  54.29283469094383  5.5399653828549225  -8.257446466010062  22.23281269847536  55.97351436318842  -20.756184150655287  18.070587289821514  0.000000
1.891  0.000000  0.000000  0.000000  -35.12811328705133  8.065468091360625  31.09892452536116  54.223053851329986  5.399908018797658  -8.549784218291366  22.5496337522158  55.59139025376201  -20.906470405882146  18.073311725662066  0.000000
1.922  0.000000  0.000000  0.000000  -34.865939814494446  7.872653064100971  30.848263078198766  54.15707220920072  5.231336328487852  -8.91394127821246  22.893107859752188  55.11420822351981  -21.154211941176197  18.07531820414877  0.000000
1.953  0.000000  0.000000  0.000000  -34.54358046910982  7.617675758720293  30.51825164819182  54.122147453003194  5.032035642584132  -9.315411426940893  23.243673829921633  54.54358632095391  -21.49977744040996  18.08193705097727  0.000000
1.984  0.000000  0.000000  0.000000  -34.195712465737806  7.312587287113965  30.092357355790057  54.13580561441733  4.797582508910276  -9.711645565390647  23.58357078937505  53.89717478162065  -21.908798063870165  18.098382282224836  0.000000
2.015  0.000000  0.000000  0.000000  -33.84967654469722  6.97288581955176  29.54719879214315  54.19808156789244  4.532740144088302  -10.063613514244265  23.90156210929864  53.19607468840367  -22.320641965670895  18.13025426881894  0.000000
2.046  0.000000  0.000000  0.000000  -33.51801222690149  6.608343094571061  28.866306546889206  54.29343838970657  4.256751117555874  -10.348856285076536  24.196376044297434  52.45293467541669  -22.678795557690677  18.183590139941423  0.000000
2.077  0.000000  0.000000  0.000000  -33.20290669829459  6.223103461716317  28.044362411892866  54.401995605908766  3.995433590456573  -10.55809594547961  24.473599199682873  51.6704583472598  -22.95227550961887  18.260681450982023  0.000000
2.108  0.000000  0.000000  0.000000  -32.90174874558728  5.818263879281114  27.084473969861815  54.509095707679826  3.770026052536906  -10.69015932368614  24.738937910298514  50.84899769194059  -23.14191086704776  18.359677140568916  0.000000
2.139  0.000000  0.000000  0.000000  -32.611269860073364  5.392961595109538  25.99958335111831  54.606130020872115  3.5905820733290543  -10.748971117030276  24.994080893356365  49.98993412560012  -23.262842325812656  18.474280875755113  0.000000
2.17  0.000000  0.000000  0.000000  -32.331655978571604  4.948327097398766  24.809480656095833  54.68752180821321  3.4564240215146578  -10.742207762377449  25.238460638382264  49.097367963540265  -23.33114242140653  18.59717554406998  0.000000
2.201  0.000000  0.000000  0.000000  -32.06712184905861  4.488320712545909  23.534032269967867  54.74818496641858  3.3635524821265097  -10.67732556429843  25.468673354459813  48.17655935150116  -23.355659518704623  18.723541404458658  0.000000
2.232  0.000000  0.000000  0.000000  -31.818608622840493  4.014853873419378  22.19018350069757  54.7841520330964  3.3098064907009688  -10.56296664727566  25.678421293840902  47.23346596880082  -23.339945280995238  18.84802360703688  0.000000
2.263  0.000000  0.000000  0.000000  -31.583597507935266  3.5305038619826816  20.794083130467577  54.791219186427284  3.292246114036382  -10.407258456479731  25.86218123607527  46.27284977813929  -23.283755792449917  18.965852618436944  0.000000
2.294  0.000000  0.000000  0.000000  -31.360809003781082  3.0400951775368465  19.364234560090843  54.76814418580893  3.3073249310077624  -10.21706457455831  26.019456878691066  45.29595001647792  -23.184831601052462  19.072918113527194  0.000000
2.325  0.000000  0.000000  0.000000  -31.150260272484264  2.54846078791166  17.921352142065466  54.715889624214455  3.351875908866641  -9.999153506143662  26.153804163789946  44.301421221750665  -23.038796269870133  19.166217645421334  0.000000
2.356  0.000000  0.000000  0.000000  -30.953195413115008  2.0612233375545386  16.48719018889493  54.63801913143397  3.421783211382829  -9.760407270269624  26.27187734247622  43.2852772600421  -22.843201212325635  19.243933823656178  0.000000
2.387  0.000000  0.000000  0.000000  -30.770317975976607  1.5850341614166927  15.080138837363704  54.536925150916424  3.5103260918981403  -9.506837163121899  26.37982189299384  42.24361853513132  -22.59818224427757  19.307246434799087  0.000000
2.418  0.000000  0.000000  0.000000  -30.601046452767513  1.1276765462856169  13.713336818740165  54.4135879820072  3.609877656736764  -9.242354587935665  26.48261078247623  41.17141992009766  -22.308339353055413  19.359874406565638  0.000000
2.449  0.000000  0.000000  0.000000  -30.44290647985911  0.6966795399619777  12.393441139995646  54.26708433126279  3.713681170986434  -8.96916004331344  26.58323135174901  40.06474577511604  -21.981732393215925  19.406471815876948  0.000000
2.48  0.000000  0.000000  0.000000  -30.2939662734645  0.2967928465040478  11.12535226840791  54.097927781561644  3.819700772441503  -8.689115511958338  26.685517114251283  38.91798687359903  -21.629426164008194  19.450823494500625  0.000000
2.511  0.000000  0.000000  0.000000  -30.15465957522726  -0.07129604847907833  9.913549696932416  53.91130460759116  3.929176572670249  -8.405218451694221  26.79290399201478  37.72774413794584  -21.267736063389343  19.494700736048767  0.000000
2.542  0.000000  0.000000  0.000000  -30.028959839576874  -0.41026959275894137  8.764928709584941  53.71700323103791  4.046270348341721  -8.120507424993793  26.910334804522446  36.490512854102164  -20.915416868778035  19.538421331031298  0.000000
2.573  0.000000  0.000000  0.000000  -29.919492282701125  -0.7225309862452562  7.685069237763313  53.52602646177421  4.173648867102807  -7.8379005060382845  27.04179923938471  35.2067150931953  -20.59058862856277  19.580799951188254  0.000000
2.604  0.000000  0.000000  0.000000  -29.826165930690625  -1.006550553202889  6.678623625887129  53.344400134313545  4.310708383219647  -7.557324556927913  27.192662286598413  33.877159341193895  -20.3022250356033  19.622107797692138  0.000000
2.635  0.000000  0.000000  0.000000  -29.74290067381222  -1.255883081097643  5.744562602166994  53.17341023965087  4.452996424456944  -7.276982465137993  27.367591176386316  32.50668449051366  -20.04957903431536  19.661198325289504  0.000000
2.666  0.000000  0.000000  0.000000  -29.66165344333918  -1.4634665434661036  4.8795907703583445  53.007876522351935  4.595541685569799  -6.993076253795871  27.57080613359052  31.099937447176806  -19.82310151974962  19.70002068849616  0.000000
